<svg xmlns="http://www.w3.org/2000/svg" width="260" height="260" fill="none" viewBox="0 0 260 260">
  <defs>
    <clipPath id="a">
      <rect width="260" height="260" fill="#fff" rx="40" />
    </clipPath>
  </defs>
  <g clip-path="url(#a)">
    <path fill="#25E2A5" d="M242.166 65v130l-112.583 65.001L17 195V65L129.583 0l112.583 65Z" />
    <path fill="#1E1E1E"
      d="M157.698 42.893c1.754 1.284 2.573 3.92 1.976 6.361l-15.713 64.274h28.994c1.74 0 3.314 1.302 4.004 3.313.691 2.011.366 4.346-.827 5.941l-69.801 93.342c-1.391 1.86-3.617 2.267-5.371.984-1.753-1.285-2.572-3.921-1.976-6.362l15.713-64.274H85.704c-1.74 0-3.315-1.302-4.005-3.312-.69-2.011-.365-4.346.828-5.942l69.801-93.342c1.39-1.86 3.616-2.267 5.37-.983Z" />
  </g>
</svg>