<svg xmlns="http://www.w3.org/2000/svg" version="1.1" xmlns:xlink="http://www.w3.org/1999/xlink" width="260" height="260"><svg xmlns="http://www.w3.org/2000/svg" version="1.1" xmlns:xlink="http://www.w3.org/1999/xlink" width="260" height="260"><svg width="260" height="260" viewBox="0 0 260 260" fill="none" xmlns="http://www.w3.org/2000/svg">
<rect width="260" height="260" rx="40" fill="#1E1E1E"></rect>
<path d="M207.885 85V175L129.942 220L52 175V85L129.942 40L207.885 85ZM149.406 69.6953C148.192 68.8065 146.651 69.0886 145.688 70.376L97.3643 134.997C96.5385 136.102 96.3139 137.718 96.792 139.11C97.2698 140.502 98.3597 141.404 99.5645 141.404H119.637L108.759 185.901C108.346 187.591 108.912 189.417 110.126 190.306C111.34 191.194 112.882 190.912 113.845 189.625L162.168 125.003C162.994 123.898 163.219 122.282 162.741 120.89C162.263 119.498 161.173 118.597 159.969 118.597H139.896L150.774 74.0986C151.187 72.409 150.62 70.5841 149.406 69.6953Z" fill="#25E2A5"></path>
</svg></svg><style>@media (prefers-color-scheme: light) { :root { filter: none; } }
@media (prefers-color-scheme: dark) { :root { filter: none; } }
</style></svg>