<svg width="24" height="24" viewBox="0 0 24 24" fill="none" xmlns="http://www.w3.org/2000/svg">
<g clip-path="url(#clip0_4_34)">
<path d="M7.14008 10.3442C7.14008 10.6114 7.16948 10.828 7.22093 10.9869C7.27972 11.1458 7.35322 11.3191 7.45612 11.5069C7.49287 11.5646 7.50757 11.6224 7.50757 11.673C7.50757 11.7452 7.46347 11.8174 7.36792 11.8896L6.90489 12.1929C6.83874 12.2362 6.77259 12.2579 6.7138 12.2579C6.6403 12.2579 6.5668 12.2218 6.4933 12.1568C6.39041 12.0485 6.30221 11.9329 6.22871 11.8174C6.15522 11.6946 6.08172 11.5574 6.00087 11.3913C5.4276 12.0557 4.70732 12.3879 3.84006 12.3879C3.22268 12.3879 2.73025 12.2146 2.37011 11.8679C2.00998 11.5213 1.82623 11.0591 1.82623 10.4814C1.82623 9.86759 2.04672 9.36931 2.49506 8.9938C2.94339 8.61828 3.53872 8.43052 4.29574 8.43052C4.54563 8.43052 4.80287 8.45219 5.07481 8.48829C5.34675 8.5244 5.62604 8.58217 5.92003 8.64717V8.12C5.92003 7.57117 5.80243 7.18843 5.57459 6.96457C5.3394 6.7407 4.94251 6.63238 4.37659 6.63238C4.11935 6.63238 3.85476 6.66127 3.58282 6.72626C3.31088 6.79125 3.04629 6.87069 2.78905 6.97179C2.67145 7.02234 2.58325 7.05123 2.53181 7.06567C2.48036 7.08011 2.44361 7.08733 2.41421 7.08733C2.31131 7.08733 2.25987 7.01512 2.25987 6.86347V6.50962C2.25987 6.39407 2.27457 6.30742 2.31131 6.25687C2.34806 6.20632 2.41421 6.15577 2.51711 6.10522C2.77435 5.97523 3.08303 5.86691 3.44317 5.78025C3.80331 5.68637 4.18549 5.64304 4.58973 5.64304C5.46434 5.64304 6.10377 5.83802 6.51535 6.22798C6.91959 6.61794 7.12538 7.2101 7.12538 8.00446V10.3442H7.14008ZM4.15609 11.4419C4.39863 11.4419 4.64853 11.3985 4.91311 11.3119C5.1777 11.2252 5.4129 11.0664 5.61134 10.8497C5.72893 10.7125 5.81713 10.5608 5.86123 10.3875C5.90533 10.2142 5.93473 10.0048 5.93473 9.75927V9.45597C5.72158 9.40542 5.49374 9.36209 5.25855 9.3332C5.02336 9.30432 4.79552 9.28987 4.56768 9.28987C4.07525 9.28987 3.71511 9.38375 3.47257 9.57873C3.23003 9.77371 3.11243 10.0481 3.11243 10.4092C3.11243 10.7486 3.20063 11.0014 3.38437 11.1747C3.56077 11.3552 3.81801 11.4419 4.15609 11.4419ZM10.0579 12.2218C9.92562 12.2218 9.83743 12.2001 9.77863 12.1496C9.71983 12.1062 9.66838 12.0051 9.62428 11.8679L7.8971 6.28575C7.853 6.14132 7.83095 6.04744 7.83095 5.99689C7.83095 5.88135 7.88975 5.81636 8.00735 5.81636H8.72762C8.86726 5.81636 8.96281 5.83802 9.01426 5.88857C9.07306 5.9319 9.11715 6.033 9.16125 6.17021L10.396 10.9508L11.5426 6.17021C11.5793 6.02578 11.6234 5.9319 11.6822 5.88857C11.741 5.84524 11.8439 5.81636 11.9762 5.81636H12.5642C12.7038 5.81636 12.7994 5.83802 12.8582 5.88857C12.917 5.9319 12.9684 6.033 12.9978 6.17021L14.1591 11.0086L15.4306 6.17021C15.4747 6.02578 15.5261 5.9319 15.5776 5.88857C15.6364 5.84524 15.7319 5.81636 15.8642 5.81636H16.5477C16.6653 5.81636 16.7315 5.87413 16.7315 5.99689C16.7315 6.033 16.7241 6.06911 16.7168 6.11244C16.7094 6.15577 16.6947 6.21354 16.6653 6.29297L14.894 11.8752C14.8499 12.0196 14.7985 12.1135 14.7397 12.1568C14.6809 12.2001 14.5853 12.229 14.4604 12.229H13.8283C13.6887 12.229 13.5931 12.2073 13.5343 12.1568C13.4755 12.1062 13.4241 12.0124 13.3947 11.8679L12.2555 7.2101L11.1236 11.8607C11.0869 12.0051 11.0428 12.099 10.984 12.1496C10.9252 12.2001 10.8223 12.2218 10.69 12.2218H10.0579ZM19.5023 12.4168C19.1201 12.4168 18.7379 12.3734 18.3704 12.2868C18.003 12.2001 17.7163 12.1062 17.5252 11.9979C17.4076 11.9329 17.3268 11.8607 17.2974 11.7957C17.268 11.7307 17.2533 11.6585 17.2533 11.5935V11.2252C17.2533 11.0736 17.3121 11.0014 17.4223 11.0014C17.4664 11.0014 17.5105 11.0086 17.5546 11.023C17.5987 11.0375 17.6649 11.0664 17.7384 11.0952C17.9883 11.2036 18.2602 11.2902 18.5468 11.348C18.8408 11.4058 19.1275 11.4346 19.4215 11.4346C19.8845 11.4346 20.2446 11.3552 20.4945 11.1963C20.7444 11.0375 20.8767 10.8064 20.8767 10.5103C20.8767 10.3081 20.8106 10.142 20.6783 10.0048C20.546 9.86759 20.2961 9.74483 19.9359 9.62928L18.8702 9.30432C18.3337 9.13822 17.9368 8.89269 17.6943 8.56773C17.4517 8.24999 17.3268 7.89614 17.3268 7.52062C17.3268 7.21732 17.3929 6.95013 17.5252 6.71904C17.6575 6.48795 17.8339 6.28575 18.0544 6.12688C18.2749 5.96079 18.5248 5.83802 18.8188 5.75137C19.1128 5.66471 19.4215 5.6286 19.7448 5.6286C19.9065 5.6286 20.0756 5.63582 20.2373 5.65749C20.4063 5.67915 20.5607 5.70804 20.715 5.73692C20.862 5.77303 21.0016 5.80914 21.1339 5.85247C21.2662 5.89579 21.3691 5.93912 21.4426 5.98245C21.5455 6.04022 21.619 6.098 21.6631 6.16299C21.7072 6.22076 21.7293 6.3002 21.7293 6.4013V6.7407C21.7293 6.89235 21.6705 6.97179 21.5602 6.97179C21.5014 6.97179 21.4059 6.9429 21.2809 6.88513C20.862 6.69738 20.3916 6.6035 19.8698 6.6035C19.4509 6.6035 19.1201 6.66849 18.8923 6.8057C18.6644 6.9429 18.5468 7.15233 18.5468 7.44841C18.5468 7.65061 18.6203 7.82392 18.7673 7.96113C18.9143 8.09834 19.1863 8.23554 19.5758 8.35831L20.6195 8.68327C21.1486 8.84937 21.5308 9.08045 21.7587 9.37653C21.9865 9.67261 22.0968 10.012 22.0968 10.3875C22.0968 10.6981 22.0306 10.9797 21.9057 11.2252C21.7734 11.4708 21.597 11.6874 21.3691 11.8607C21.1413 12.0412 20.8694 12.1712 20.5533 12.2651C20.2226 12.3662 19.8771 12.4168 19.5023 12.4168Z" fill="#161517"/>
<path fill-rule="evenodd" clip-rule="evenodd" d="M20.8911 15.9264C18.4731 17.6812 14.9599 18.6128 11.9392 18.6128C7.70573 18.6128 3.89122 17.0746 1.01013 14.5182C0.78229 14.316 0.988082 14.0416 1.26002 14.2005C4.3763 15.9769 8.22021 17.0529 12.1964 17.0529C14.8791 17.0529 17.8263 16.5041 20.5383 15.3776C20.9426 15.197 21.288 15.6375 20.8911 15.9264Z" fill="#FF9900"/>
<path fill-rule="evenodd" clip-rule="evenodd" d="M21.8981 14.7999C21.5894 14.4099 19.8549 14.6121 19.0684 14.706C18.8333 14.7349 18.7965 14.5327 19.0096 14.381C20.3914 13.4278 22.6625 13.7022 22.9271 14.0199C23.1916 14.3449 22.8536 16.5763 21.56 17.6451C21.3616 17.8112 21.1705 17.7245 21.2587 17.5079C21.5527 16.793 22.2068 15.1826 21.8981 14.7999Z" fill="#FF9900"/>
</g>
<defs>
<clipPath id="clip0_4_34">
<rect width="22.5" height="13.4135" fill="white" transform="translate(0.75 5.25)"/>
</clipPath>
</defs>
</svg>
