<svg width="24" height="24" viewBox="0 0 24 24" fill="none" xmlns="http://www.w3.org/2000/svg">
<path d="M22.3535 6V18L11.9619 24L1.56934 18V6L11.9619 0L22.3535 6Z" fill="#25E2A5"/>
<path d="M14.5567 3.95936C14.7186 4.07787 14.7942 4.32123 14.7391 4.54653L13.2887 10.4795H15.9651C16.1257 10.4795 16.271 10.5997 16.3347 10.7853C16.3985 10.9709 16.3684 11.1865 16.2583 11.3337L9.81516 19.9499C9.68677 20.1216 9.48132 20.1592 9.31941 20.0407C9.15755 19.9221 9.08195 19.6788 9.13702 19.4535L10.5874 13.5205H7.9111C7.75046 13.5205 7.60515 13.4003 7.54145 13.2147C7.4777 13.0291 7.50775 12.8136 7.61785 12.6663L14.061 4.05011C14.1894 3.87845 14.3948 3.84084 14.5567 3.95936Z" fill="#1E1E1E"/>
</svg>
