<svg width="24" height="24" viewBox="0 0 24 24" fill="none" xmlns="http://www.w3.org/2000/svg">
<g clip-path="url(#clip0_1_108)">
<path d="M1.105 18.02C0.373216 16.4426 -0.00396572 14.7239 4.39621e-07 12.985C4.39621e-07 12.5197 0.0260004 12.061 0.0780004 11.609C0.129611 11.1583 0.206735 10.7109 0.309 10.269C0.871674 7.85186 2.16994 5.66863 4.025 4.02C5.57477 2.63974 7.45601 1.685 9.485 1.249C10.6107 1.00831 11.7652 0.930848 12.913 1.019C14.365 1.131 15.738 1.496 16.99 2.069C17.9939 2.52958 18.9294 3.12655 19.77 3.843C21.9046 5.65785 23.3382 8.1614 23.823 10.921C23.9414 11.6026 24.0006 12.2932 24 12.985C24 13.2877 23.988 13.5923 23.964 13.899C23.8787 15.0295 23.6336 16.1423 23.236 17.204C22.6969 18.6356 21.8891 19.9508 20.856 21.079C19.526 22.436 17.836 23.041 16.426 23.015C15.4281 22.9925 14.4676 22.6314 13.702 21.991C12.712 21.138 12.311 20.161 12.172 19.072C12.1369 18.5624 12.18 18.0505 12.3 17.554C12.405 17.174 12.67 16.438 13.06 16.117C12.605 15.92 12.02 15.493 11.834 15.288C11.789 15.238 11.794 15.158 11.834 15.105C11.8539 15.0783 11.8819 15.0588 11.9137 15.0492C11.9456 15.0397 11.9797 15.0407 12.011 15.052C12.403 15.186 12.88 15.319 13.383 15.402C14.043 15.513 14.867 15.652 15.7 15.694C17.73 15.794 19.853 14.881 20.512 13.067C21.171 11.253 20.915 9.458 18.552 8.382C16.189 7.306 15.098 6.026 13.189 5.254C11.942 4.749 10.553 5.049 9.129 5.836C5.291 7.957 1.852 14.658 3.439 20.868C3.45011 20.9082 3.44778 20.9509 3.43235 20.9896C3.41693 21.0283 3.38926 21.0609 3.35356 21.0825C3.31787 21.104 3.27611 21.1133 3.23467 21.1088C3.19322 21.1044 3.15435 21.0866 3.124 21.058C2.66133 20.5501 2.24312 20.0034 1.874 19.424C1.5867 18.9736 1.3298 18.5046 1.105 18.02ZM11.57 6.087C12.219 6.036 12.784 6.588 12.88 7.323C13.01 8.302 12.652 9.313 11.47 9.336C10.46 9.356 10.155 8.339 10.222 7.722C10.288 7.106 10.796 6.147 11.572 6.087" fill="#161517"/>
</g>
<defs>
<clipPath id="clip0_1_108">
<rect width="24" height="24" fill="white"/>
</clipPath>
</defs>
</svg>
