<svg width="24" height="24" viewBox="0 0 24 24" fill="none" xmlns="http://www.w3.org/2000/svg">
<mask id="mask0_1_170" style="mask-type:luminance" maskUnits="userSpaceOnUse" x="0" y="2" width="24" height="19">
<path d="M23.9647 2H0V21H23.9647V2Z" fill="white"/>
</mask>
<g mask="url(#mask0_1_170)">
<path d="M23.5765 9.8056C22.9906 9.40858 21.4447 9.23843 20.3224 9.54328C20.2588 8.42313 19.6871 7.47313 18.6282 6.65075L18.24 6.38843L17.9788 6.78545C17.4706 7.5653 17.2518 8.60746 17.3294 9.55037C17.3859 10.1317 17.5906 10.784 17.9788 11.259C16.5177 12.1097 15.1694 11.9183 9.20471 11.9183H8.04664e-06C-0.0282272 13.2724 0.190596 15.8743 1.8353 17.9869C2.01883 18.2209 2.21648 18.4478 2.4353 18.6675C3.77648 20.0146 5.7953 21 8.82354 21.0071C13.44 21.0071 17.393 18.5045 19.8 12.4429C20.5906 12.4571 22.68 12.5847 23.7035 10.5996C23.7318 10.5642 23.9647 10.075 23.9647 10.075L23.5765 9.81269V9.8056ZM6.01413 8.57201H3.42354V11.1739H6.01413V8.57201ZM9.36001 8.57201H6.76942V11.1739H9.36001V8.57201ZM12.6988 8.57201H10.1082V11.1739H12.6988V8.57201ZM16.0447 8.57201H13.4541V11.1739H16.0447V8.57201ZM2.66824 8.57201H0.0776551V11.1739H2.66824V8.57201ZM6.01413 5.28246H3.42354V7.88433H6.01413V5.28246ZM9.36001 5.28246H6.76942V7.88433H9.36001V5.28246ZM12.6988 5.28246H10.1082V7.88433H12.6988V5.28246ZM12.6988 2H10.1082V4.60187H12.6988V2Z" fill="#2560FF"/>
</g>
</svg>
