<svg width="24" height="24" viewBox="0 0 24 24" fill="none" xmlns="http://www.w3.org/2000/svg">
<g clip-path="url(#clip0_4_48)">
<path d="M15.0685 8.03918L15.7892 8.05149L17.7474 6.09329L17.8423 5.26361C16.2891 3.87986 14.2384 3.03717 11.9976 3.03717C7.94056 3.03717 4.51636 5.79763 3.50281 9.53683C3.71656 9.38777 4.17359 9.49957 4.17359 9.49957L8.08646 8.85621C8.08646 8.85621 8.28756 8.52328 8.38951 8.53981C8.84704 8.03714 9.40455 7.6356 10.0263 7.36093C10.648 7.08626 11.3203 6.94451 12 6.94477C13.1602 6.94723 14.2289 7.35715 15.0685 8.03532V8.03918Z" fill="#EA4335"/>
<path d="M20.4975 9.54469C20.0429 7.86775 19.106 6.38697 17.8414 5.26373L15.0686 8.0365C16.1796 8.93298 16.8922 10.3048 16.8922 11.8404V12.3298C18.2411 12.3298 19.3369 13.428 19.3369 14.7745C19.3369 16.1235 18.2387 17.2193 16.8922 17.2193H12.0027L11.5133 17.7115V20.6456L12.0027 21.1325H16.8922C18.5777 21.1302 20.1934 20.4596 21.3853 19.2678C22.5771 18.0761 23.2478 16.4603 23.2502 14.7749C23.2477 12.611 22.1603 10.6968 20.4975 9.54504V9.54469Z" fill="#4285F4"/>
<path d="M7.10811 21.1357H11.9948V17.2193H7.10811C6.76093 17.2193 6.41778 17.1448 6.10194 17.0006L5.39636 17.2168L3.43816 19.175L3.2666 19.836C4.37011 20.6778 5.71979 21.1335 7.10776 21.1329L7.10811 21.1357Z" fill="#34A853"/>
<path d="M7.10798 8.4197C5.42252 8.42203 3.80674 9.09258 2.6149 10.2844C1.42306 11.4761 0.752418 13.0919 0.75 14.7773C0.75 16.8421 1.73894 18.6779 3.26929 19.8409L6.10428 17.0059C5.67517 16.8124 5.31098 16.4992 5.05538 16.1039C4.79978 15.7087 4.66362 15.2481 4.66323 14.7773C4.66323 13.4284 5.7615 12.3326 7.10798 12.3326C8.09939 12.3326 8.95157 12.9302 9.33688 13.774L12.1719 10.939C11.0093 9.40864 9.17305 8.4197 7.10834 8.4197H7.10798Z" fill="#FBBC05"/>
</g>
<defs>
<clipPath id="clip0_4_48">
<rect width="22.5" height="18.173" fill="white" transform="translate(0.75 3)"/>
</clipPath>
</defs>
</svg>
