<svg width="24" height="24" viewBox="0 0 24 24" fill="none" xmlns="http://www.w3.org/2000/svg">
<path d="M1.81104 10.231C1.76404 10.231 1.75304 10.208 1.77604 10.172L2.02204 9.857C2.04504 9.822 2.10304 9.799 2.15004 9.799H6.32204C6.36804 9.799 6.38004 9.834 6.35704 9.869L6.15804 10.172C6.13504 10.208 6.07604 10.242 6.04104 10.242L1.81104 10.231ZM0.0470373 11.306C3.72976e-05 11.306 -0.0119627 11.283 0.0120373 11.248L0.257037 10.932C0.280037 10.897 0.339037 10.874 0.386037 10.874H5.71404C5.76104 10.874 5.78404 10.909 5.77204 10.944L5.67904 11.224C5.66704 11.271 5.62104 11.294 5.57404 11.294L0.0470373 11.306ZM2.87504 12.381C2.82804 12.381 2.81604 12.346 2.84004 12.311L3.00304 12.019C3.02604 11.984 3.07304 11.949 3.12004 11.949H5.45704C5.50404 11.949 5.52704 11.984 5.52704 12.031L5.50404 12.311C5.50404 12.358 5.45704 12.393 5.42204 12.393L2.87504 12.381ZM15.004 10.021C14.268 10.208 13.765 10.348 13.041 10.535C12.865 10.581 12.854 10.593 12.701 10.418C12.527 10.219 12.398 10.091 12.153 9.974C11.416 9.612 10.703 9.717 10.038 10.149C9.24304 10.663 8.83404 11.423 8.84604 12.369C8.85704 13.304 9.50004 14.075 10.423 14.204C11.218 14.309 11.883 14.029 12.41 13.434C12.515 13.304 12.608 13.164 12.725 13H10.47C10.225 13 10.166 12.848 10.248 12.65C10.4 12.288 10.68 11.68 10.844 11.376C10.8691 11.3197 10.9101 11.2719 10.962 11.2387C11.0139 11.2055 11.0744 11.1882 11.136 11.189H15.389C15.366 11.505 15.366 11.82 15.319 12.136C15.198 12.9679 14.8684 13.7557 14.361 14.426C13.52 15.536 12.421 16.226 11.031 16.412C9.88604 16.564 8.82204 16.342 7.88804 15.642C7.02304 14.987 6.53204 14.122 6.40404 13.047C6.25204 11.773 6.62604 10.628 7.39704 9.623C8.22704 8.537 9.32504 7.847 10.669 7.603C11.767 7.403 12.819 7.533 13.765 8.174C14.385 8.584 14.828 9.144 15.121 9.822C15.191 9.927 15.144 9.986 15.004 10.022M18.872 16.483C17.808 16.459 16.838 16.155 16.02 15.454C15.3395 14.8805 14.891 14.079 14.758 13.199C14.548 11.879 14.91 10.71 15.705 9.67C16.558 8.548 17.586 7.964 18.977 7.72C20.169 7.51 21.291 7.625 22.307 8.315C23.23 8.945 23.803 9.799 23.955 10.92C24.153 12.498 23.698 13.783 22.611 14.882C21.84 15.665 20.893 16.155 19.806 16.377C19.491 16.437 19.176 16.447 18.872 16.483ZM21.652 11.763C21.641 11.61 21.641 11.493 21.618 11.376C21.408 10.219 20.344 9.566 19.234 9.822C18.147 10.067 17.446 10.757 17.189 11.855C16.979 12.767 17.423 13.69 18.264 14.065C18.907 14.345 19.549 14.309 20.169 13.995C21.092 13.515 21.594 12.767 21.653 11.762L21.652 11.763Z" fill="#00ADD8"/>
</svg>
