<svg width="24" height="24" viewBox="0 0 24 24" fill="none" xmlns="http://www.w3.org/2000/svg">
<path d="M8.92818 18.3975C8.92818 18.3975 8.03437 18.9176 9.56512 19.0931C11.4199 19.305 12.3677 19.2746 14.4111 18.8884C14.4111 18.8884 14.9494 19.2249 15.6997 19.5167C11.1174 21.4798 5.32949 19.4029 8.92818 18.3975ZM8.36793 15.8353C8.36793 15.8353 7.36518 16.5776 8.89724 16.7362C10.8786 16.9408 12.4429 16.9575 15.1511 16.4362C15.1511 16.4362 15.5248 16.8159 16.1134 17.0233C10.5742 18.6433 4.40474 17.1508 8.36793 15.8353V15.8353Z" fill="#0074BD"/>
<path d="M13.0879 11.4883C14.2176 12.7886 12.7916 13.9577 12.7916 13.9577C12.7916 13.9577 15.6583 12.4781 14.3421 10.6245C13.1123 8.89669 12.1695 8.0385 17.2736 5.07825C17.2736 5.07843 9.26157 7.07887 13.0879 11.4883V11.4883Z" fill="#EA2D2E"/>
<path d="M19.1481 20.2929C19.1481 20.2929 19.8098 20.8386 18.4191 21.2602C15.7749 22.0612 7.41169 22.3027 5.08894 21.2923C4.25438 20.9289 5.82 20.4251 6.31256 20.3188C6.82613 20.2076 7.11938 20.2279 7.11938 20.2279C6.19069 19.5741 1.11694 21.5122 4.54256 22.0682C13.884 23.5824 21.5708 21.3862 19.1481 20.2929V20.2929ZM9.3585 13.1801C9.3585 13.1801 5.10488 14.1906 7.85231 14.5579C9.01256 14.7131 11.3244 14.6775 13.4794 14.4967C15.24 14.3488 17.0068 14.0329 17.0068 14.0329C17.0068 14.0329 16.3866 14.2989 15.9373 14.6053C11.6169 15.7417 3.27281 15.2124 5.67525 14.0507C7.70625 13.0684 9.3585 13.1801 9.3585 13.1801V13.1801ZM16.9892 17.4452C21.3806 15.1639 19.35 12.9714 17.9327 13.2667C17.5862 13.3389 17.4308 13.4017 17.4308 13.4017C17.4308 13.4017 17.5598 13.1994 17.8058 13.1124C20.6094 12.1271 22.7653 16.0192 16.9014 17.5609C16.9014 17.5605 16.9688 17.4996 16.9892 17.4452V17.4452Z" fill="#0074BD"/>
<path d="M14.3421 0.297562C14.3421 0.297562 16.7736 2.73056 12.0353 6.47062C8.23538 9.47175 11.1688 11.1825 12.0339 13.1379C9.81563 11.1367 8.1885 9.37481 9.27994 7.73512C10.8827 5.32875 15.3229 4.16156 14.3421 0.297562Z" fill="#EA2D2E"/>
<path d="M9.79012 23.6289C14.0044 23.8984 20.4776 23.4789 20.6308 21.4847C20.6308 21.4847 20.3362 22.2407 17.1476 22.8405C13.5502 23.5178 9.1125 23.4388 6.48131 23.0044C6.48131 23.0046 7.02037 23.4508 9.79012 23.6289V23.6289Z" fill="#0074BD"/>
</svg>
