<svg width="24" height="24" viewBox="0 0 24 24" fill="none" xmlns="http://www.w3.org/2000/svg">
<path d="M16.8133 13.2817C15.8659 13.2817 15.0165 13.6954 14.4348 14.3468L12.9443 13.3068C13.1026 12.8774 13.1934 12.4164 13.1934 11.9339C13.1934 11.4597 13.1057 11.0064 12.9527 10.5834L14.4399 9.55448C15.0215 10.2025 15.8686 10.614 16.8133 10.614C18.5621 10.614 19.985 9.21179 19.985 7.488C19.985 5.76421 18.5621 4.362 16.8133 4.362C15.0646 4.362 13.6417 5.76421 13.6417 7.488C13.6417 7.79654 13.689 8.09406 13.7738 8.37583L12.2857 9.40529C11.6641 8.64519 10.769 8.11448 9.7492 7.95248V6.18479C11.1859 5.88739 12.2684 4.62929 12.2684 3.126C12.2684 1.40221 10.8454 0 9.0967 0C7.34796 0 5.92503 1.40221 5.92503 3.126C5.92503 4.60915 6.97949 5.85173 8.38743 6.17037V7.96102C6.46596 8.29344 5 9.94621 5 11.9339C5 13.9313 6.48047 15.5901 8.41582 15.9112V17.802C6.99348 18.1101 5.92503 19.3603 5.92503 20.8536C5.92503 22.5774 7.34796 23.9796 9.0967 23.9796C10.8454 23.9796 12.2684 22.5774 12.2684 20.8536C12.2684 19.3603 11.1999 18.1101 9.77759 17.802V15.9111C10.7572 15.7485 11.6434 15.2405 12.2712 14.4818L13.7716 15.5285C13.6883 15.8077 13.6417 16.1023 13.6417 16.4077C13.6417 18.1315 15.0646 19.5337 16.8133 19.5337C18.5621 19.5337 19.985 18.1315 19.985 16.4077C19.985 14.6839 18.5621 13.2817 16.8133 13.2817ZM16.8133 5.97237C17.6613 5.97237 18.3511 6.65244 18.3511 7.488C18.3511 8.32356 17.6613 9.00358 16.8133 9.00358C15.9653 9.00358 15.2756 8.32356 15.2756 7.488C15.2756 6.65244 15.9653 5.97237 16.8133 5.97237ZM7.55893 3.126C7.55893 2.29044 8.2487 1.61042 9.0967 1.61042C9.9447 1.61042 10.6344 2.29044 10.6344 3.126C10.6344 3.96156 9.9447 4.64158 9.0967 4.64158C8.2487 4.64158 7.55893 3.96156 7.55893 3.126ZM10.6344 20.8536C10.6344 21.6891 9.9447 22.3692 9.0967 22.3692C8.2487 22.3692 7.55893 21.6891 7.55893 20.8536C7.55893 20.018 8.2487 19.338 9.0967 19.338C9.9447 19.338 10.6344 20.018 10.6344 20.8536ZM9.09659 14.0476C7.91388 14.0476 6.95174 13.0995 6.95174 11.9339C6.95174 10.7682 7.91388 9.81992 9.09659 9.81992C10.2792 9.81992 11.2414 10.7682 11.2414 11.9339C11.2414 13.0995 10.2792 14.0476 9.09659 14.0476ZM16.8133 17.9233C15.9653 17.9233 15.2756 17.2433 15.2756 16.4077C15.2756 15.5721 15.9653 14.8921 16.8133 14.8921C17.6613 14.8921 18.3511 15.5721 18.3511 16.4077C18.3511 17.2433 17.6613 17.9233 16.8133 17.9233Z" fill="#231F20"/>
</svg>
