<svg width="24" height="24" viewBox="0 0 24 24" fill="none" xmlns="http://www.w3.org/2000/svg">
<path d="M11.5871 1.00197C11.3808 1.01223 11.1787 1.0627 10.9926 1.15044L2.87983 4.97576C2.66986 5.07472 2.48536 5.21871 2.34004 5.39703C2.19472 5.57536 2.09232 5.78344 2.04044 6.00581L0.0389762 14.5985C-0.00724058 14.7964 -0.0124129 15.0015 0.0237654 15.2014C0.0599437 15.4014 0.136737 15.5922 0.249602 15.7626C0.276969 15.8043 0.306402 15.8446 0.337795 15.8835L5.9531 22.7734C6.09845 22.9516 6.28297 23.0956 6.49295 23.1945C6.70293 23.2934 6.93298 23.3447 7.16602 23.3447L16.171 23.3426C16.404 23.3428 16.634 23.2916 16.844 23.1929C17.0539 23.0942 17.2385 22.9504 17.384 22.7723L22.9972 15.8814C23.1426 15.7031 23.2451 15.4949 23.297 15.2724C23.3489 15.05 23.3489 14.8189 23.297 14.5964L21.2925 6.00377C21.2406 5.78139 21.1382 5.57331 20.9929 5.39499C20.8476 5.21666 20.6631 5.07267 20.4531 4.97371L12.3393 1.15044C12.1052 1.04007 11.8466 0.989022 11.5871 1.00197Z" fill="#326CE5"/>
<path d="M11.6675 3.92616C11.3993 3.92619 11.1819 4.16456 11.1819 4.4586C11.1819 4.46311 11.1828 4.46742 11.1829 4.47191C11.1825 4.51186 11.1806 4.55999 11.1819 4.59478C11.1883 4.76437 11.2257 4.89417 11.2483 5.05042C11.2891 5.38484 11.3234 5.66205 11.3022 5.91971C11.2817 6.01688 11.2092 6.10574 11.1445 6.1675L11.1331 6.37023C10.8417 6.39406 10.5484 6.43769 10.2553 6.50334C8.9945 6.78585 7.90894 7.42676 7.08246 8.29211C7.02883 8.25601 6.93501 8.18959 6.90711 8.16924C6.82042 8.1808 6.73279 8.2072 6.61867 8.1416C6.40136 7.99725 6.20345 7.79799 5.96397 7.55797C5.85423 7.44315 5.77477 7.33382 5.64439 7.22315C5.61479 7.19802 5.5696 7.16403 5.53649 7.13817C5.43456 7.05797 5.31434 7.01615 5.19824 7.01223C5.04897 7.00718 4.90527 7.06478 4.81123 7.18117C4.64405 7.3881 4.69757 7.70437 4.93055 7.88767C4.93291 7.88953 4.93543 7.89097 4.93781 7.89279C4.96983 7.9184 5.00903 7.95121 5.03846 7.97265C5.17681 8.07346 5.30318 8.12506 5.44103 8.20508C5.73145 8.38207 5.97221 8.52883 6.16318 8.70577C6.23775 8.78422 6.25078 8.92245 6.26071 8.98223L6.41634 9.11943C5.58319 10.3568 5.1976 11.8851 5.42547 13.4424L5.22211 13.5007C5.16851 13.569 5.09277 13.6765 5.01355 13.7086C4.7637 13.7863 4.48251 13.8148 4.14304 13.8499C3.98366 13.863 3.84614 13.8552 3.67717 13.8868C3.63998 13.8937 3.58816 13.907 3.54747 13.9164C3.54606 13.9167 3.54474 13.9172 3.54332 13.9175C3.54111 13.918 3.53819 13.919 3.53606 13.9195C3.24985 13.9878 3.06599 14.2474 3.12518 14.5031C3.18439 14.759 3.46395 14.9146 3.75187 14.8533C3.75395 14.8529 3.75697 14.8528 3.75914 14.8523C3.76239 14.8516 3.76525 14.85 3.76848 14.8492C3.80861 14.8405 3.85891 14.8309 3.89402 14.8216C4.06014 14.7777 4.18045 14.7132 4.3298 14.6567C4.65109 14.543 4.9172 14.448 5.17645 14.411C5.28473 14.4026 5.39881 14.4769 5.45556 14.5083L5.66722 14.4724C6.1543 15.9627 7.17507 17.1672 8.46761 17.923L8.37942 18.1319C8.41121 18.213 8.44627 18.3227 8.42259 18.4028C8.32834 18.644 8.1669 18.8986 7.98307 19.1824C7.89406 19.3135 7.80296 19.4153 7.72264 19.5654C7.70342 19.6013 7.67894 19.6564 7.66039 19.6944C7.53558 19.9579 7.62713 20.2614 7.86686 20.3753C8.1081 20.4899 8.40754 20.369 8.53713 20.105C8.53733 20.1046 8.53798 20.1043 8.53816 20.1039C8.5383 20.1036 8.53803 20.1032 8.53816 20.1029C8.55662 20.0655 8.58277 20.0163 8.59834 19.9811C8.66714 19.8255 8.69003 19.6922 8.73841 19.5418C8.86689 19.2233 8.93748 18.8892 9.11435 18.6809C9.16278 18.6239 9.24174 18.602 9.3236 18.5804L9.43358 18.3838C10.5604 18.8106 11.8217 18.9251 13.0817 18.6428C13.3691 18.5784 13.6466 18.4951 13.9148 18.395C13.9457 18.4491 14.0032 18.5531 14.0186 18.5793C14.1018 18.606 14.1926 18.6198 14.2666 18.7278C14.3989 18.9509 14.4894 19.2148 14.5996 19.5336C14.648 19.684 14.6719 19.8173 14.7407 19.9729C14.7564 20.0083 14.7824 20.0582 14.8009 20.0957C14.9302 20.3606 15.2306 20.4819 15.4722 20.3671C15.7119 20.2531 15.8036 19.9497 15.6787 19.6862C15.6601 19.6482 15.6346 19.5931 15.6154 19.5572C15.5351 19.4071 15.444 19.3064 15.355 19.1753C15.1711 18.8914 15.0186 18.6557 14.9244 18.4145C14.885 18.2901 14.931 18.2127 14.9617 18.1319C14.9433 18.1111 14.904 17.9936 14.8808 17.9384C16.2241 17.1557 17.2149 15.9062 17.6802 14.4632C17.743 14.473 17.8522 14.492 17.8877 14.4991C17.9607 14.4515 18.0278 14.3895 18.1595 14.3997C18.4188 14.4367 18.6849 14.5318 19.0062 14.6455C19.1555 14.7019 19.2758 14.7675 19.4419 14.8113C19.4771 14.8206 19.5274 14.8293 19.5675 14.838C19.5707 14.8388 19.5736 14.8403 19.5768 14.841C19.579 14.8415 19.582 14.8416 19.5841 14.8421C19.872 14.9032 20.1516 14.7477 20.2108 14.4919C20.2699 14.2361 20.0861 13.9764 19.7999 13.9083C19.7583 13.8989 19.6992 13.8831 19.6588 13.8755C19.4898 13.8439 19.3523 13.8517 19.1929 13.8386C18.8535 13.8035 18.5723 13.775 18.3224 13.6973C18.2205 13.6583 18.1481 13.5387 18.1128 13.4895L17.9167 13.4332C18.0184 12.7073 17.991 11.9518 17.815 11.1959C17.6375 10.433 17.3236 9.73523 16.9051 9.12046C16.9554 9.07533 17.0504 8.99232 17.0773 8.96789C17.0852 8.88191 17.0784 8.79176 17.1686 8.69656C17.3596 8.5196 17.6004 8.37287 17.8908 8.19587C18.0286 8.11584 18.1561 8.06425 18.2944 7.96344C18.3257 7.94064 18.3684 7.90454 18.4013 7.87845C18.6342 7.69509 18.6878 7.37884 18.5206 7.17196C18.3534 6.96508 18.0293 6.94559 17.7964 7.12895C17.7632 7.15487 17.7182 7.18867 17.6885 7.21394C17.5581 7.32462 17.4776 7.43393 17.3678 7.54876C17.1284 7.78879 16.9304 7.98905 16.7131 8.13341C16.619 8.18751 16.4811 8.16879 16.4185 8.16515L16.2338 8.29519C15.1807 7.2054 13.7468 6.50865 12.2029 6.37331C12.1985 6.30946 12.1929 6.19404 12.1914 6.15931C12.1282 6.09962 12.0519 6.04867 12.0327 5.91971C12.0116 5.66205 12.0468 5.38484 12.0877 5.05042C12.1102 4.89417 12.1477 4.76437 12.1541 4.59478C12.1555 4.55622 12.1532 4.50028 12.153 4.4586C12.153 4.16456 11.9356 3.92614 11.6675 3.92616ZM11.0595 7.64295L10.9152 10.1567L10.9049 10.1618C10.8952 10.3867 10.7076 10.5662 10.4774 10.5662C10.3831 10.5662 10.296 10.5363 10.2253 10.4853L10.2211 10.4874L8.13248 9.02626C8.7744 8.40335 9.59546 7.94303 10.5417 7.73101C10.7146 7.69228 10.8873 7.66354 11.0595 7.64295ZM12.2765 7.64295C13.3813 7.77704 14.4029 8.2707 15.1859 9.02728L13.1107 10.4792L13.1035 10.4761C12.9193 10.6089 12.6598 10.5759 12.5162 10.3983C12.4574 10.3255 12.4265 10.24 12.4228 10.1536L12.4207 10.1526L12.2765 7.64295ZM7.37506 9.96518L9.2821 11.6485L9.28003 11.6587C9.45216 11.8064 9.47754 12.0627 9.33398 12.2403C9.27517 12.3131 9.19646 12.3619 9.11194 12.3847L9.10987 12.3929L6.66536 13.0891C6.54094 11.9664 6.80908 10.8751 7.37506 9.96518ZM15.9464 9.9662C16.2297 10.4194 16.4443 10.9256 16.572 11.4744C16.6982 12.0166 16.7299 12.5579 16.6779 13.0809L14.2209 12.3826L14.2188 12.3724C13.9988 12.3131 13.8636 12.0922 13.9148 11.8707C13.9358 11.7799 13.9846 11.7032 14.0508 11.6464L14.0497 11.6413L15.9464 9.9662ZM11.2763 11.7785H12.0576L12.5432 12.3775L12.3689 13.125L11.6675 13.4577L10.964 13.1239L10.7897 12.3765L11.2763 11.7785ZM13.781 13.8284C13.8142 13.8267 13.8472 13.8297 13.8796 13.8356L13.8837 13.8304L16.4123 14.2523C16.0422 15.2783 15.3341 16.1671 14.388 16.7619L13.4064 14.4223L13.4095 14.4182C13.3194 14.2114 13.4096 13.969 13.6171 13.8704C13.6702 13.8451 13.7257 13.8312 13.781 13.8284ZM9.53423 13.8386C9.72719 13.8413 9.90027 13.9735 9.94511 14.1673C9.9661 14.258 9.95588 14.348 9.92124 14.4274L9.92851 14.4366L8.95734 16.7527C8.04936 16.1777 7.32615 15.3168 6.93928 14.2605L9.44604 13.8407L9.45019 13.8458C9.47823 13.8407 9.50667 13.8382 9.53423 13.8386ZM11.6519 14.8533C11.7191 14.8509 11.7873 14.8645 11.8522 14.8953C11.9371 14.9357 12.0028 14.9993 12.0441 15.0755H12.0534L13.2892 17.279C13.1288 17.332 12.9639 17.3774 12.7953 17.4151C11.8502 17.6269 10.9081 17.5627 10.0551 17.2759L11.2877 15.0765H11.2898C11.3638 14.9401 11.504 14.8587 11.6519 14.8533Z" fill="white" stroke="white" stroke-width="0.25"/>
</svg>
