<svg width="25" height="24" viewBox="0 0 25 24" fill="none" xmlns="http://www.w3.org/2000/svg">
<path d="M14.1562 0.0562439C13.9875 0.0562439 13.8188 0.0937439 13.6688 0.149994C13.9875 0.356244 14.1562 0.637494 14.25 0.956244C14.25 0.993744 14.2687 1.03124 14.2687 1.06874C14.2687 1.10624 14.2875 1.14374 14.2875 1.18124C14.3062 1.72499 14.1375 1.79999 14.025 2.11874C13.8375 2.53124 13.8937 2.98124 14.1187 3.33749C14.1375 3.37499 14.1562 3.43124 14.1937 3.46874C13.95 1.89374 15.2625 1.66874 15.5062 1.18124C15.525 0.749994 15.1688 0.468744 14.8875 0.262494C14.6063 0.0937439 14.3813 0.0562439 14.1562 0.0562439ZM16.125 0.393744C16.1062 0.543744 16.125 0.506244 16.1063 0.581244C16.1063 0.637494 16.1062 0.693744 16.0875 0.749994C16.0687 0.806244 16.0687 0.843744 16.05 0.899994C16.0312 0.956244 16.0125 0.993744 15.9937 1.04999C15.975 1.08749 15.9563 1.12499 15.9375 1.18124C15.9187 1.19999 15.9 1.23749 15.8812 1.25624C15.8625 1.27499 15.8625 1.29374 15.8438 1.31249C15.8062 1.34999 15.7875 1.40624 15.75 1.44374L15.6375 1.55624C15.6 1.59374 15.5625 1.63124 15.525 1.64999C15.3937 1.74374 15.2437 1.81874 15.1125 1.91249C15.075 1.94999 15.0188 1.96874 14.9813 2.00624C14.9438 2.04374 14.9062 2.06249 14.8687 2.09999L14.7562 2.21249C14.7187 2.24999 14.6812 2.28749 14.6625 2.34374C14.625 2.38124 14.6062 2.43749 14.5687 2.47499C14.55 2.53124 14.5312 2.56874 14.4937 2.62499C14.475 2.68124 14.4563 2.71874 14.4375 2.77499C14.4187 2.83124 14.4 2.88749 14.4 2.92499C14.4 2.94374 14.4 2.98124 14.3812 2.99999C14.3812 3.01874 14.3812 3.05624 14.3625 3.07499V3.33749C14.3625 3.39374 14.3625 3.43124 14.3812 3.48749C14.3812 3.54374 14.4 3.58124 14.4188 3.63749C14.4375 3.69374 14.4562 3.73124 14.475 3.78749C14.4937 3.82499 14.5125 3.84374 14.5125 3.88124L13.0875 3.33749C12.8437 3.26249 12.6187 3.20624 12.375 3.14999C12.2438 3.11249 12.1125 3.09374 11.9812 3.05624C11.6062 2.98124 11.2312 2.92499 10.8562 2.88749H10.8187C10.4437 2.84999 10.0875 2.83124 9.7125 2.83124C9.43125 2.83124 9.16875 2.84999 8.90625 2.86874C8.53125 2.88749 8.15625 2.94374 7.78125 2.99999L7.5 3.05624C7.3125 3.09374 7.125 3.13124 6.9375 3.18749C6.84375 3.20624 6.75 3.24374 6.65625 3.26249C6.5625 3.29999 6.46875 3.33749 6.39375 3.37499C6.31875 3.41249 6.2625 3.43124 6.1875 3.46874C6.16875 3.46874 6.16875 3.46874 6.15 3.48749C6.09375 3.52499 6.0375 3.54374 5.98125 3.58124C5.9625 3.58124 5.94375 3.59999 5.94375 3.59999C5.86875 3.63749 5.8125 3.67499 5.75625 3.69374C5.71875 3.71249 5.6625 3.73124 5.625 3.74999C5.60625 3.76874 5.5875 3.76874 5.56875 3.78749C5.5125 3.82499 5.45625 3.84374 5.4 3.88124C5.34375 3.91874 5.2875 3.93749 5.25 3.97499C5.2125 4.01249 5.15625 4.03124 5.11875 4.06874C5.11875 4.06874 5.1 4.06874 5.1 4.08749C5.0625 4.10624 5.025 4.14374 4.9875 4.18124L4.96875 4.19999C4.93125 4.21874 4.9125 4.25624 4.875 4.27499C4.85625 4.27499 4.85625 4.29374 4.8375 4.29374C4.8 4.31249 4.78125 4.34999 4.74375 4.36874C4.74375 4.38749 4.725 4.38749 4.725 4.38749L4.6125 4.49999L4.59375 4.51874L4.48125 4.63124C4.48125 4.63124 4.48125 4.64999 4.4625 4.64999L4.36875 4.74374C4.35 4.76249 4.33125 4.76249 4.33125 4.78124L4.21875 4.89374C4.21875 4.91249 4.2 4.91249 4.2 4.93124L4.05 5.08124L4.03125 5.09999C3.9375 5.21249 3.825 5.30624 3.7125 5.39999C3.6 5.49374 3.4875 5.58749 3.35625 5.68124C3.225 5.77499 3.1125 5.84999 2.98125 5.92499C2.85 5.99999 2.71875 6.05624 2.5875 6.11249C2.45625 6.16874 2.325 6.22499 2.19375 6.26249C1.93125 6.31874 1.66875 6.43124 1.44375 6.44999C1.44375 6.35624 1.3875 6.37499 1.33125 6.37499C1.275 6.39374 1.21875 6.39374 1.18125 6.41249C1.125 6.43124 1.0875 6.44999 1.03125 6.46874C0.975 6.48749 0.9375 6.50624 0.88125 6.54374C0.84375 6.58124 0.7875 6.59999 0.75 6.63749C0.7125 6.67499 0.65625 6.71249 0.61875 6.74999C0.58125 6.78749 0.525 6.82499 0.4875 6.86249C0.45 6.89999 0.4125 6.93749 0.375 6.99374C0.3375 7.04999 0.3 7.08749 0.28125 7.14374C0.24375 7.18124 0.225 7.23749 0.1875 7.29374C0.16875 7.34999 0.13125 7.40624 0.1125 7.46249L0.05625 7.63124C0.0375 7.68749 0.0375 7.72499 0.01875 7.78124V7.79999C0 7.85624 0 7.93124 0 7.96874C0.01875 7.94999 0.01875 7.98749 0.01875 8.02499V8.09999C0.01875 8.13749 0.0375 8.17499 0.0375 8.21249C0.05625 8.24999 0.05625 8.28749 0.075 8.32499C0.09375 8.36249 0.1125 8.39999 0.15 8.43749C0.16875 8.47499 0.20625 8.51249 0.225 8.54999C0.2625 8.58749 0.3 8.62499 0.3375 8.64374C0.375 8.68124 0.4125 8.71874 0.45 8.73749C0.6 8.86874 0.6375 8.90624 0.825 9.01874C0.8625 9.03749 0.88125 9.05624 0.91875 9.07499H0.9375V9.11249C0.9375 9.16874 0.95625 9.20624 0.975 9.26249C0.99375 9.31874 1.0125 9.37499 1.03125 9.41249L1.0875 9.52499C1.0875 9.54374 1.10625 9.54374 1.10625 9.56249C1.125 9.61874 1.1625 9.65624 1.18125 9.69374C1.21875 9.73124 1.2375 9.78749 1.275 9.82499L1.3875 9.93749L1.5 10.05H1.51875C1.55625 10.0875 1.59375 10.1062 1.63125 10.1437C1.66875 10.1812 1.725 10.2 1.7625 10.2187C1.8 10.2375 1.85625 10.275 1.9125 10.2937C1.95 10.3125 1.9875 10.3312 2.04375 10.3312C2.04375 10.3312 2.0625 10.3312 2.0625 10.35C2.08125 10.35 2.11875 10.3687 2.1375 10.3687C2.11875 10.7062 2.11875 11.025 2.15625 11.1375C2.2125 11.2687 2.49375 10.875 2.75625 10.4437C2.71875 10.875 2.7 11.3812 2.75625 11.5312C2.83125 11.6812 3.1875 11.1937 3.525 10.6687C7.9125 9.65624 11.925 12.6937 12.3563 16.9875C12.2813 16.3125 11.4562 15.9375 11.0625 16.0312C10.875 16.4812 10.5562 17.0812 10.05 17.4375C10.0875 17.025 10.0687 16.6125 9.99375 16.2C9.8625 16.7625 9.6 17.3062 9.225 17.7562C8.64375 17.7937 8.04375 17.5125 7.74375 17.0812C7.725 17.0625 7.70625 17.025 7.6875 17.0062C7.66875 16.9687 7.65 16.9125 7.63125 16.875C7.6125 16.8375 7.59375 16.7812 7.59375 16.7437V16.6125V16.5187C7.59375 16.4812 7.6125 16.425 7.63125 16.3875C7.65 16.35 7.65 16.2937 7.66875 16.2562C7.6875 16.2187 7.70625 16.1625 7.74375 16.125C7.85625 15.825 7.85625 15.5812 7.65 15.45L7.5375 15.3937C7.51875 15.3937 7.48125 15.375 7.4625 15.375C7.44375 15.375 7.425 15.3562 7.40625 15.3562C7.36875 15.3375 7.3125 15.3375 7.275 15.3187C7.2375 15.3 7.18125 15.3 7.14375 15.3C7.10625 15.3 7.05 15.2812 7.0125 15.2812H6.91875C6.8625 15.2812 6.825 15.2812 6.7875 15.3C6.75 15.3 6.69375 15.3187 6.65625 15.3187C6.61875 15.3375 6.5625 15.3375 6.525 15.3562C6.4875 15.375 6.45 15.3937 6.39375 15.4125L6.28125 15.4687C4.8375 16.4062 5.7 18.6187 6.675 19.2562C6.3 19.3312 5.925 19.4062 5.8125 19.4812L5.79375 19.5C6.05625 19.6687 6.3375 19.8 6.6375 19.9125C7.03125 20.0437 7.4625 20.1562 7.65 20.2125C8.15625 20.325 8.68125 20.3625 9.20625 20.325C11.9437 20.1375 14.1938 18.0375 14.6063 15.3C14.625 15.3562 14.625 15.4125 14.6437 15.4687C14.6625 15.5812 14.6813 15.6937 14.7 15.825C14.7188 15.8812 14.7188 15.9375 14.7188 15.9937V16.0125C14.7188 16.0687 14.7375 16.125 14.7375 16.1812C14.7375 16.2562 14.7562 16.3125 14.7562 16.3875V17.175C14.7562 17.2312 14.7375 17.2687 14.7375 17.325V17.3812C14.7375 17.4375 14.7188 17.4937 14.7188 17.5687C14.7 17.625 14.7 17.6812 14.6812 17.7375V17.7562C14.6625 17.8125 14.6625 17.8687 14.6437 17.925V17.9437C14.625 18 14.625 18.0562 14.6063 18.1125V18.1312L14.55 18.3V18.3187C14.5312 18.375 14.5125 18.45 14.4937 18.5062C14.475 18.5625 14.4563 18.6187 14.4188 18.6937C14.4 18.75 14.3813 18.825 14.3438 18.8812C14.325 18.9375 14.2875 18.9937 14.2687 19.0687C14.25 19.125 14.2125 19.1812 14.1937 19.2375C14.1937 19.2562 14.175 19.275 14.175 19.275C14.175 19.275 14.175 19.2937 14.1562 19.2937C13.7625 20.1 13.1625 20.8125 12.4125 21.375C12.3562 21.4125 12.3188 21.45 12.2625 21.4875C12.2438 21.5062 12.225 21.5062 12.225 21.525C12.1875 21.5625 12.1313 21.5812 12.0938 21.6187L12.1125 21.6562C12.2062 21.6375 12.2812 21.6375 12.375 21.6187C12.5437 21.6 12.6937 21.5625 12.8625 21.525C12.9 21.525 12.9562 21.5062 12.9937 21.4875C13.0312 21.4875 13.05 21.4687 13.0875 21.4687C13.125 21.4687 13.1812 21.45 13.2188 21.45C13.2563 21.4312 13.2937 21.4312 13.3312 21.4125C13.95 21.2625 14.55 21.0562 15.1312 20.8125C14.1375 22.1625 12.825 23.25 11.2875 23.9625C12 23.9062 12.7125 23.7937 13.4062 23.5875C15.9 22.8562 18 21.1687 19.2562 18.9C18.9937 20.325 18.4312 21.6937 17.5875 22.8937C18.1875 22.5 18.7312 22.0312 19.2375 21.525C20.625 20.0812 21.5437 18.225 21.8438 16.2562C22.05 17.2312 22.125 18.2437 22.0312 19.2375C26.5125 12.9937 22.4062 6.52499 20.6812 4.81874C20.6812 4.79999 20.6625 4.79999 20.6625 4.78124C20.6625 4.85624 20.6625 4.93124 20.6437 5.00624C20.625 5.15624 20.6062 5.28749 20.5875 5.41874C20.55 5.54999 20.5125 5.69999 20.475 5.83124C20.4375 5.96249 20.3813 6.09374 20.325 6.22499C20.2688 6.35624 20.2125 6.48749 20.1375 6.59999C20.0625 6.71249 19.9875 6.84374 19.9125 6.95624C19.8375 7.06874 19.7437 7.18124 19.65 7.29374C19.5562 7.40624 19.4625 7.49999 19.35 7.61249C19.2937 7.66874 19.2375 7.72499 19.1625 7.76249C19.1062 7.79999 19.0688 7.83749 19.0125 7.89374C18.9 7.98749 18.7875 8.06249 18.6562 8.13749C18.5437 8.21249 18.4125 8.28749 18.2812 8.34374L17.8875 8.51249C17.7563 8.56874 17.625 8.60624 17.4937 8.64374C17.3625 8.68124 17.2125 8.71874 17.0812 8.73749C16.9312 8.75624 16.8 8.77499 16.6688 8.79374C16.575 8.79374 16.4625 8.81249 16.3687 8.81249C16.2187 8.81249 16.0875 8.79374 15.9562 8.79374C15.8062 8.77499 15.675 8.75624 15.5438 8.73749C15.3938 8.71874 15.2625 8.68124 15.1312 8.62499C15.2625 8.60624 15.4125 8.60624 15.5438 8.56874C15.6938 8.54999 15.825 8.51249 15.9562 8.47499C16.0875 8.43749 16.2375 8.39999 16.35 8.34374L16.7437 8.17499C16.875 8.11874 16.9875 8.04374 17.1187 7.96874C17.2312 7.89374 17.3625 7.79999 17.475 7.72499C17.5875 7.63124 17.7 7.53749 17.7938 7.44374C17.9063 7.34999 18 7.23749 18.0938 7.14374C18.1875 7.03124 18.2813 6.91874 18.3563 6.80624C18.375 6.78749 18.375 6.76874 18.3937 6.74999C18.45 6.65624 18.525 6.54374 18.5812 6.44999C18.6562 6.31874 18.7125 6.20624 18.7687 6.07499C18.825 5.94374 18.8813 5.81249 18.9188 5.68124L19.0312 5.28749C19.05 5.13749 19.0875 5.00624 19.0875 4.87499C19.1062 4.72499 19.1063 4.59374 19.1063 4.46249C19.1063 4.36874 19.1062 4.25624 19.0875 4.16249C19.0687 4.01249 19.05 3.88124 19.0312 3.74999C19.0125 3.59999 18.975 3.46874 18.9375 3.33749C18.9 3.20624 18.8437 3.07499 18.8062 2.94374C18.75 2.81249 18.6938 2.68124 18.6375 2.56874C18.5625 2.43749 18.5062 2.32499 18.4312 2.19374C18.3562 2.08124 18.2625 1.96874 18.1875 1.85624C18.0938 1.74374 18 1.64999 17.9062 1.53749C17.85 1.48124 17.7937 1.42499 17.7375 1.38749C17.4562 1.16249 17.175 0.974994 16.875 0.787494C16.8375 0.768744 16.8 0.749994 16.7437 0.731244C16.5 0.524994 16.3125 0.468744 16.125 0.393744V0.393744Z" fill="#DF234F"/>
</svg>
