<svg width="24" height="24" viewBox="0 0 24 24" fill="none" xmlns="http://www.w3.org/2000/svg">
<path d="M11.961 1.5H12.0097C12.2596 1.619 12.5029 1.75118 12.7387 1.896C15.4532 3.457 18.1677 5.0185 20.8822 6.5805C20.9873 6.63656 21.073 6.72287 21.1284 6.82825C21.1837 6.93363 21.2062 7.05322 21.1927 7.1715C21.1867 10.4633 21.1927 13.7542 21.189 17.0445C21.1537 17.2015 21.0577 17.3382 20.922 17.4247C18.0355 19.0867 15.1487 20.7478 12.2617 22.4078C12.1918 22.4611 12.1075 22.4922 12.0196 22.4972C11.9318 22.5021 11.8445 22.4806 11.769 22.4355C8.879 20.7785 5.99175 19.1185 3.10725 17.4555C3.0135 17.4112 2.93498 17.3401 2.88159 17.2512C2.8282 17.1623 2.80233 17.0596 2.80725 16.956C2.80725 13.665 2.80725 10.3742 2.80725 7.08375C2.80018 6.98062 2.82401 6.87773 2.87571 6.78822C2.92742 6.69871 3.00463 6.62665 3.0975 6.58125C5.8085 5.02225 8.5195 3.46225 11.2305 1.90125C11.472 1.76325 11.709 1.617 11.961 1.5Z" fill="#019639"/>
<path d="M6.57525 7.90351C6.57525 10.618 6.57525 13.3328 6.57525 16.0478C6.57179 16.1981 6.59832 16.3476 6.65331 16.4876C6.7083 16.6276 6.79063 16.7552 6.8955 16.863C7.09652 17.0616 7.35954 17.1852 7.64069 17.2134C7.92185 17.2415 8.20414 17.1723 8.4405 17.0175C8.59871 16.91 8.72823 16.7654 8.81778 16.5964C8.90732 16.4274 8.95418 16.239 8.95425 16.0478C8.95425 14.0828 8.9505 12.1178 8.95425 10.1528C10.7458 12.2978 12.541 14.4398 14.34 16.5788C14.5899 16.832 14.8995 17.0183 15.2402 17.1208C15.5809 17.2233 15.9419 17.2386 16.29 17.1653C16.5358 17.1168 16.7597 16.9908 16.9285 16.8057C17.0974 16.6206 17.2025 16.3862 17.2283 16.137C17.2323 13.3665 17.2323 10.5963 17.2283 7.82626C17.2024 7.53058 17.0667 7.25531 16.8479 7.05477C16.6291 6.85424 16.3431 6.743 16.0463 6.743C15.7494 6.743 15.4634 6.85424 15.2446 7.05477C15.0258 7.25531 14.8901 7.53058 14.8643 7.82626C14.8643 9.82276 14.8523 11.817 14.8643 13.8128C13.1048 11.7383 11.367 9.64576 9.61425 7.56376C9.38317 7.26745 9.07725 7.03813 8.72803 6.89945C8.3788 6.76076 7.9989 6.71771 7.6275 6.77476C7.34615 6.80608 7.08532 6.93715 6.89229 7.14421C6.69925 7.35128 6.58678 7.62065 6.57525 7.90351Z" fill="white"/>
</svg>
