<svg width="24" height="24" viewBox="0 0 24 24" fill="none" xmlns="http://www.w3.org/2000/svg">
<path d="M21.1446 5.68763L12.8764 0.88669C12.3549 0.58969 11.676 0.58969 11.1504 0.88669L2.79394 5.68763C2.25581 5.99719 1.875 6.579 1.875 7.20132V16.7904C1.875 17.4128 2.26575 17.9948 2.80388 18.306L5.01169 19.56C6.06694 20.0798 6.43988 20.0798 6.92006 20.0798C8.4825 20.0798 9.375 19.1349 9.375 17.487V8.02013C9.375 7.88644 9.30544 7.6875 9.17419 7.6875H8.11987C7.98637 7.6875 7.6875 7.88644 7.6875 8.01994V17.4868C7.6875 18.2173 7.02675 18.9443 5.79187 18.3268L3.51056 17.0119C3.43106 16.9688 3.375 16.8819 3.375 16.7904V7.20132C3.375 7.11094 3.47906 7.02019 3.55913 6.97388L11.8886 2.18119C11.9664 2.13713 12.0808 2.13713 12.1584 2.18119L20.3863 6.97275C20.4651 7.02019 20.4373 7.10813 20.4373 7.20132V16.7904C20.4373 16.8819 20.4716 16.971 20.3938 17.0151L12.1277 21.8106C12.0568 21.8531 11.9689 21.8531 11.8912 21.8106L9.77119 20.5451C9.70725 20.508 9.63131 20.4947 9.57 20.529C8.98013 20.8633 8.87137 20.9078 8.31806 21.0996C8.18194 21.147 7.98112 21.2293 8.39494 21.4613L11.1696 23.1026C11.4345 23.2556 11.735 23.3362 12.0409 23.3363C12.3488 23.3363 12.6503 23.2564 12.9159 23.1026L21.1444 18.306C21.6825 17.9925 21.9375 17.4128 21.9375 16.7904V7.20132C21.9375 6.579 21.6825 5.99869 21.1446 5.68763V5.68763ZM14.6081 15.2709C12.4095 15.2709 11.9252 14.6644 11.7638 13.5711C11.745 13.4533 11.6451 13.3125 11.5252 13.3125H10.4507C10.3177 13.3125 10.2109 13.4738 10.2109 13.6061C10.2109 15.006 10.9719 16.7021 14.6083 16.7021C17.2406 16.7021 18.7498 15.6793 18.7498 13.8692C18.7498 12.0744 17.5372 11.6034 14.9844 11.2656C12.4041 10.9245 12.1419 10.7522 12.1419 10.1477C12.1419 9.64932 12.3639 8.98463 14.2746 8.98463C15.9817 8.98463 16.611 9.351 16.8699 10.5017C16.8921 10.6099 16.9909 10.6875 17.1024 10.6875H18.1813C18.2477 10.6875 18.3111 10.6607 18.3576 10.6133C18.4026 10.5623 18.4264 10.4983 18.4204 10.4297C18.2533 8.44819 16.9369 7.52475 14.2744 7.52475C11.9061 7.52475 10.4933 8.52488 10.4933 10.2013C10.4933 12.0197 11.8989 12.5222 14.1724 12.747C16.8921 13.0136 17.1036 13.4111 17.1036 13.9461C17.1036 14.8751 16.3577 15.2709 14.6081 15.2709Z" fill="#83CD29"/>
</svg>
