<svg width="24" height="24" viewBox="0 0 24 24" fill="none" xmlns="http://www.w3.org/2000/svg">
<g clip-path="url(#clip0_1_186)">
<path d="M12.6836 13.0869C11.6999 14.0713 11.6999 15.6665 12.6836 16.6509C13.6679 17.6345 15.2632 17.6345 16.2468 16.6509C17.2312 15.6665 17.2312 14.0713 16.2468 13.0869C15.2632 12.1033 13.6679 12.1033 12.6836 13.0869ZM15.3474 15.753C15.2316 15.8689 15.0941 15.9609 14.9427 16.0237C14.7913 16.0865 14.6291 16.1188 14.4652 16.1188C14.3013 16.1188 14.1391 16.0865 13.9877 16.0237C13.8363 15.9609 13.6988 15.8689 13.583 15.753C13.4672 15.6372 13.3753 15.4997 13.3125 15.3484C13.2498 15.1971 13.2176 15.0349 13.2176 14.8711C13.2176 14.7073 13.2498 14.5451 13.3125 14.3938C13.3753 14.2424 13.4672 14.105 13.583 13.9892C13.6988 13.8732 13.8363 13.7812 13.9877 13.7184C14.1391 13.6557 14.3013 13.6234 14.4652 13.6234C14.6291 13.6234 14.7913 13.6557 14.9427 13.7184C15.0941 13.7812 15.2316 13.8732 15.3474 13.9892C15.8345 14.474 15.8345 15.2658 15.3474 15.753ZM16.2052 0.688475L14.6611 2.23235C14.5158 2.37881 14.4342 2.57679 14.4342 2.78313C14.4342 2.98948 14.5158 3.18746 14.6611 3.33391L20.6891 9.36185C20.8355 9.50721 21.0335 9.58878 21.2399 9.58878C21.4462 9.58878 21.6442 9.50721 21.7906 9.36185L23.3345 7.81779C23.6364 7.51591 23.6364 7.01885 23.3345 6.71716L17.3039 0.688288C17.1579 0.543286 16.9604 0.461914 16.7546 0.461914C16.5487 0.461914 16.3513 0.543473 16.2052 0.688475ZM5.38795 20.4178C5.51959 20.2856 5.59351 20.1066 5.59351 19.92C5.59351 19.7334 5.51959 19.5544 5.38795 19.4222L4.60363 18.6371C4.47126 18.5055 4.29219 18.4316 4.10554 18.4316C3.91889 18.4316 3.73982 18.5055 3.60745 18.6371L1.9867 20.2588L1.9837 20.261L1.53913 19.8157C1.29295 19.5695 0.892258 19.5695 0.648508 19.8157C0.40232 20.0617 0.40232 20.4624 0.648508 20.7063L3.31963 23.3767C3.37803 23.4352 3.44738 23.4816 3.52373 23.5133C3.60008 23.545 3.68192 23.5613 3.76457 23.5613C3.84722 23.5613 3.92906 23.545 4.00541 23.5133C4.08176 23.4816 4.15111 23.4352 4.20951 23.3767C4.45326 23.1305 4.45569 22.7298 4.20951 22.4868L3.76419 22.0415L3.7672 22.0393L5.38795 20.4178Z" fill="#F5A800"/>
<path d="M13.5552 5.12078L10.1253 8.55053C9.82057 8.85522 9.82057 9.35697 10.1253 9.66166L12.2433 11.7791C13.7403 10.7017 15.8395 10.835 17.1863 12.1828L18.9016 10.4673C19.2057 10.1627 19.2057 9.66166 18.9016 9.35697L14.6658 5.12078C14.5929 5.04782 14.5063 4.98994 14.4111 4.95045C14.3158 4.91095 14.2137 4.89062 14.1106 4.89062C14.0074 4.89062 13.9053 4.91095 13.8101 4.95045C13.7148 4.98994 13.6281 5.04782 13.5552 5.12078ZM11.3526 12.6718L10.1016 11.4208C9.80857 11.1279 9.32819 11.1279 9.03588 11.4208L4.624 15.8345C4.48327 15.9763 4.4043 16.1679 4.4043 16.3677C4.4043 16.5674 4.48327 16.7591 4.624 16.9008L7.12357 19.4006C7.26533 19.5414 7.45702 19.6204 7.65682 19.6204C7.85661 19.6204 8.0483 19.5414 8.19007 19.4006L11.0273 16.5587C10.4275 15.3195 10.5351 13.8225 11.3526 12.6718Z" fill="#425CC7"/>
</g>
<defs>
<clipPath id="clip0_1_186">
<rect width="24" height="24" fill="white"/>
</clipPath>
</defs>
</svg>
