<svg width="24" height="24" viewBox="0 0 24 24" fill="none" xmlns="http://www.w3.org/2000/svg">
<path d="M12 14.1375C13.1805 14.1375 14.1375 13.1805 14.1375 12C14.1375 10.8195 13.1805 9.8625 12 9.8625C10.8195 9.8625 9.86252 10.8195 9.86252 12C9.86252 13.1805 10.8195 14.1375 12 14.1375Z" fill="#61DAFB"/>
<path d="M20.1188 8.475C19.7063 8.325 19.275 8.175 18.825 8.04375C18.9375 7.59375 19.0313 7.14375 19.1063 6.7125C19.5 4.2375 19.0688 2.49375 17.8688 1.81875C17.5125 1.6125 17.1188 1.51875 16.6688 1.51875C15.3563 1.51875 13.6875 2.49375 12 4.125C10.3125 2.49375 8.64376 1.51875 7.33126 1.51875C6.88126 1.51875 6.48751 1.6125 6.13126 1.81875C4.93126 2.5125 4.50001 4.25625 4.89376 6.7125C4.96876 7.14375 5.06251 7.59375 5.17501 8.04375C4.72501 8.175 4.29376 8.30625 3.88126 8.475C1.53751 9.375 0.262512 10.6125 0.262512 12C0.262512 13.3875 1.55626 14.625 3.88126 15.525C4.29376 15.675 4.72501 15.825 5.17501 15.9563C5.06251 16.4063 4.96876 16.8563 4.89376 17.2875C4.50001 19.7625 4.93126 21.5063 6.13126 22.1813C6.48751 22.3875 6.88126 22.4813 7.33126 22.4813C8.66251 22.4813 10.3313 21.5063 12 19.875C13.6875 21.5063 15.3563 22.4813 16.6688 22.4813C17.1188 22.4813 17.5125 22.3875 17.8688 22.1813C19.0688 21.4875 19.5 19.7438 19.1063 17.2875C19.0313 16.8563 18.9375 16.4063 18.825 15.9563C19.275 15.825 19.7063 15.6938 20.1188 15.525C22.4625 14.625 23.7375 13.3875 23.7375 12C23.7375 10.6125 22.4625 9.375 20.1188 8.475ZM17.3438 2.75625C18.1125 3.20625 18.375 4.59375 18.0563 6.5625C18 6.95625 17.9063 7.36875 17.7938 7.8C16.8188 7.575 15.7875 7.425 14.7 7.33125C14.0625 6.43125 13.4063 5.625 12.75 4.89375C14.1375 3.525 15.5438 2.5875 16.6875 2.5875C16.9313 2.5875 17.1563 2.64375 17.3438 2.75625ZM15.2438 13.875C14.9063 14.475 14.5125 15.075 14.1 15.675C13.4063 15.7313 12.7125 15.75 12 15.75C11.2688 15.75 10.575 15.7313 9.90001 15.675C9.48751 15.075 9.11251 14.475 8.77501 13.875C8.41876 13.2563 8.08126 12.6188 7.78126 12C8.08126 11.3813 8.41876 10.7438 8.77501 10.125C9.11251 9.525 9.50626 8.925 9.91876 8.325C10.6125 8.26875 11.3063 8.25 12.0188 8.25C12.75 8.25 13.4438 8.26875 14.1188 8.325C14.5313 8.925 14.9063 9.525 15.2438 10.125C15.6 10.7438 15.9375 11.3813 16.2375 12C15.9188 12.6188 15.6 13.2375 15.2438 13.875ZM16.8 13.2563C17.0813 13.9125 17.3063 14.55 17.5125 15.1875C16.875 15.3375 16.2 15.45 15.4875 15.5438C15.7125 15.1875 15.9563 14.8125 16.1625 14.4188C16.3875 14.025 16.5938 13.6313 16.8 13.2563ZM12 18.3375C11.55 17.85 11.1188 17.325 10.7063 16.7813C11.1375 16.8 11.5688 16.8188 12 16.8188C12.4313 16.8188 12.8625 16.8 13.2938 16.7813C12.8813 17.325 12.45 17.85 12 18.3375ZM8.51251 15.525C7.80001 15.4313 7.12501 15.3188 6.48751 15.1688C6.69376 14.55 6.91876 13.8938 7.20001 13.2375C7.40626 13.6125 7.61251 14.0063 7.83751 14.3813C8.06251 14.7938 8.28751 15.15 8.51251 15.525ZM7.20001 10.7438C6.91876 10.0875 6.69376 9.45 6.48751 8.8125C7.12501 8.6625 7.80001 8.55 8.51251 8.45625C8.28751 8.8125 8.04376 9.1875 7.83751 9.58125C7.61251 9.975 7.40626 10.3688 7.20001 10.7438ZM12 5.6625C12.45 6.15 12.8813 6.675 13.2938 7.21875C12.8625 7.2 12.4313 7.18125 12 7.18125C11.5688 7.18125 11.1375 7.2 10.7063 7.21875C11.1188 6.675 11.55 6.15 12 5.6625ZM16.1625 9.6L15.4875 8.475C16.2 8.56875 16.875 8.68125 17.5125 8.83125C17.3063 9.45 17.0813 10.1063 16.8 10.7625C16.5938 10.3688 16.3875 9.975 16.1625 9.6ZM5.94376 6.5625C5.62501 4.59375 5.88751 3.20625 6.65626 2.75625C6.84376 2.64375 7.06876 2.5875 7.31251 2.5875C8.43751 2.5875 9.84376 3.50625 11.25 4.89375C10.5938 5.60625 9.93751 6.43125 9.30001 7.33125C8.21251 7.425 7.18126 7.59375 6.20626 7.8C6.09376 7.36875 6.01876 6.95625 5.94376 6.5625ZM1.31251 12C1.31251 11.1188 2.38126 10.1813 4.25626 9.4875C4.63126 9.3375 5.04376 9.20625 5.45626 9.09375C5.75626 10.0313 6.13126 11.025 6.58126 12.0188C6.13126 13.0125 5.73751 13.9875 5.45626 14.925C2.86876 14.175 1.31251 13.05 1.31251 12ZM6.65626 21.2438C5.88751 20.7938 5.62501 19.4063 5.94376 17.4375C6.00001 17.0438 6.09376 16.6313 6.20626 16.2C7.18126 16.425 8.21251 16.575 9.30001 16.6688C9.93751 17.5688 10.5938 18.375 11.25 19.1063C9.86251 20.475 8.45626 21.4125 7.31251 21.4125C7.06876 21.4125 6.84376 21.3563 6.65626 21.2438ZM18.0563 17.4375C18.375 19.4063 18.1125 20.7938 17.3438 21.2438C17.1563 21.3563 16.9313 21.4125 16.6875 21.4125C15.5625 21.4125 14.1563 20.4938 12.75 19.1063C13.4063 18.3938 14.0625 17.5688 14.7 16.6688C15.7875 16.575 16.8188 16.4063 17.7938 16.2C17.9063 16.6313 17.9813 17.0438 18.0563 17.4375ZM19.7438 14.5125C19.3688 14.6625 18.9563 14.7938 18.5438 14.9063C18.2438 13.9688 17.8688 12.975 17.4188 11.9813C17.8688 10.9875 18.2625 10.0125 18.5438 9.075C21.1313 9.825 22.6875 10.95 22.6875 12C22.6875 12.8813 21.6 13.8188 19.7438 14.5125Z" fill="#61DAFB"/>
</svg>
